<?xml version="1.0" encoding="UTF-8"?>
<svg id="JioHotstar_Logo" xmlns="http://www.w3.org/2000/svg" width="2605" height="660" viewBox="0 0 2605 660">
  <path d="M423.675349,219.846465L718.45286,7.803806c6.276722-4.515042,13.716677,3.856026,8.503872,9.568135l-251.881506,276.007784c-3.437405,3.766654-2.650524,9.724811,1.646677,12.468411l154.753623,102.583981c5.835273,3.86812,2.172141,12.961863-4.712336,11.698397l-200.644983-36.823154c-3.203795-.587973-6.372925,1.185934-7.549233,4.225653l-101.275137,261.706858c-2.665206,6.93609-12.973442,4.865191-12.757321-2.562914l7.085772-243.537849c.132958-4.569751-4.194145-7.961995-8.595758-6.738667l-167.185148,46.46529c-6.929479,1.92589-11.313163-7.247717-5.465239-11.436945l129.009822-92.417676c4.251444-3.045571,3.606952-9.556626-1.158933-11.708259L20.946748,220.178965c-6.910911-3.120039-3.679261-13.545594,3.782792-12.203582l243.252663,43.74775c5.216778.938211,9.045269-4.795945,6.182734-9.260245l-55.032606-91.148387c-3.508325-5.471449,2.750789-11.943294,8.329686-8.612789l101.533444,66.461387c3.820103,2.500549,8.967992.587561,10.231553-3.802109l46.663043-162.109603c2.124083-7.413103,12.941744-6.326883,13.551849,1.360764l13.512088,170.259395c.41831,5.270929,6.431145,8.061002,10.721356,4.974919Z" style="fill: #fff;"/>
  <path d="M1245.306615,417.887827h45.699836v-130.901077h143.54142v130.901077h45.699969V128.252543h-45.699969v120.32701h-143.54142v-120.32701h-45.699836v289.635284h0ZM776.153151,424.572558c64.660616,0,94.924714-35.125636,94.924714-99.057002v-197.263013h-45.699836v201.638516c0,38.529071-12.519,60.406588-46.307744,60.406588-32.087291,0-46.307611-18.109789-46.307611-55.544918h-42.539618v3.403434c0,56.03082,28.92694,86.416394,85.930094,86.416394h0ZM917.507085,417.887827h43.998384v-216.70996h-43.998384v216.70996h0ZM1103.223564,423.721831c66.483677,0,106.835807-48.373755,106.835807-114.006573s-39.258056-114.371397-106.835807-114.371397c-66.969579,0-106.470983,48.37402-106.470983,114.371397,0,64.174317,38.285855,114.006573,106.470983,114.006573h0ZM1103.223564,389.446921c-42.053451,0-61.257314-38.042639-61.257314-79.731663,0-42.175191,18.717697-80.096487,60.771147-80.096487,43.512217,0,61.622006,36.827353,61.622006,80.096487,0,43.633692-17.988314,79.731663-61.135839,79.731663h0ZM1838.676293,420.804829c11.789352,0,18.231132-.972334,29.777534-3.281561v-33.545792c-4.253896,1.093942-12.640344,2.552443-20.905184,2.552443-22.728244,0-28.076346-14.949836-28.076346-37.313521v-114.978907h48.98153v-33.059625h-48.98153v-65.025043h-43.998251v65.025043h-40.230523v33.059625h40.230523v119.111459c0,43.14726,17.74523,67.455878,63.202248,67.455878h0ZM1981.123506,423.721831c48.738579,0,90.91377-19.56829,90.91377-68.306869,0-38.285855-27.590179-53.842936-65.754426-62.837159l-26.374629-5.955613c-19.811506-4.375504-43.7553-11.546401-43.7553-31.844075,0-20.419281,20.540624-28.319562,41.567416-28.319562,23.336284,0,44.120124,8.265105,45.699969,31.357908h41.567416c-2.795394-45.578361-40.351866-62.4726-85.930226-62.4726-44.119594,0-85.930491,18.595956-85.930491,62.837424,0,38.042639,28.927073,53.843201,64.9037,61.986433l25.159079,5.834005c23.336284,5.469446,45.821577,12.032833,45.821577,34.031959,0,23.822186-25.888462,32.573193-47.523029,32.573193-27.346963,0-49.953864-10.574067-52.384699-38.042374h-41.93224c2.674051,50.561374,43.633957,69.15733,93.952115,69.15733h0ZM2322.778931,391.513197c-25.766854,0-42.782701-13.005168-42.782701-37.799688,0-32.938017,35.49046-38.529071,70.372881-38.529071h28.562513v16.529945c0,41.324465-26.496237,59.798813-56.152693,59.798813h0ZM2309.774028,423.721831c29.291897,0,58.340312-12.275784,70.372881-36.827089h.486167l2.917002,30.993084h39.379797v-140.381467c0-58.461655-31.479516-82.648665-87.631944-82.648665-47.279813,0-87.145777,17.623622-90.91377,62.4726h43.147525c3.767993-23.092803,21.391616-31.357908,46.064793-31.357908,33.910351,0,45.335145,18.353005,45.335145,49.710913v11.789617h-35.247244c-56.274301,0-108.172833,13.612678-108.172833,69.157595,0,43.269133,30.142888,67.091319,74.262482,67.091319h0ZM2467.90046,417.887827h43.998251v-116.3158c0-40.230788,18.231397-65.997642,58.340312-65.997642,6.44178,0,13.248119.729383,17.623622,2.066276v-40.71669c-4.496847-1.093942-9.844949-1.580109-15.921905-1.580109-29.41324,0-52.141748,17.74523-60.771147,44.848977h-.850726l.364824-39.014973h-42.783231v216.70996h0ZM2186.530016,420.804829c11.789617,0,18.231397-.972334,29.778064-3.281561v-33.545792c-4.25416,1.093942-12.640608,2.552443-20.905448,2.552443-22.728244,0-28.076346-14.949836-28.076346-37.313521v-114.978907h48.981795v-33.059625h-48.981795v-65.025043h-43.998251v65.025043h-40.230523v33.059625h40.230523v119.111459c0,43.14726,17.74523,67.455878,63.201983,67.455878h0ZM1621.966068,423.721831c66.483809,0,106.835675-48.373755,106.835675-114.006573s-39.258189-114.371397-106.835675-114.371397c-66.969711,0-106.470851,48.37402-106.470851,114.371397,0,64.174317,38.28559,114.006573,106.470851,114.006573h0ZM1621.966068,389.446921c-42.053583,0-61.257049-38.042639-61.257049-79.731663,0-42.175191,18.717299-80.096487,60.771147-80.096487,43.511819,0,61.621873,36.827353,61.621873,80.096487,0,43.633692-17.988446,79.731663-61.135971,79.731663h0ZM939.50621,172.372402c15.679086,0,27.347096-11.181842,27.347096-26.374629,0-15.071179-11.668009-26.253286-27.347096-26.253286-15.800562,0-27.468571,11.182107-27.468571,26.253286,0,15.192787,11.668009,26.374629,27.468571,26.374629h0Z" style="fill: #fff;"/>
</svg>