<svg width="352" height="101" viewBox="0 0 352 101" fill="none" xmlns="http://www.w3.org/2000/svg">
<path d="M33.0631 5.40655H47.646V100.572H33.0631V5.40655ZM0.000283526 0.000834683H80.7089V14.5837H0.000283526V0.000834683ZM105.996 92.5266L99.4589 85.9894H161.059V100.572H98.8304C96.7351 100.572 94.9751 99.8599 93.5504 98.4351C92.1256 96.9266 91.4132 95.1246 91.4132 93.0294V0.000834683H105.996V92.5266ZM226.268 0.000834683C231.548 0.000834683 236.409 1.29988 240.851 3.89797C245.293 6.49607 248.771 10.0161 251.285 14.458C253.884 18.8161 255.183 23.5932 255.183 28.7894V71.7837C255.183 76.9799 253.884 81.7989 251.285 86.2408C248.771 90.5989 245.293 94.077 240.851 96.6751C236.409 99.2732 231.548 100.572 226.268 100.572H198.108V85.9894H226.394C228.992 85.9894 231.381 85.4027 233.56 84.2294C235.739 82.9723 237.457 81.2961 238.714 79.2008C239.971 77.0218 240.6 74.6332 240.6 72.0351V28.538C240.6 25.9399 239.971 23.5932 238.714 21.498C237.457 19.3189 235.739 17.6427 233.56 16.4694C231.381 15.2123 228.992 14.5837 226.394 14.5837H191.32V100.572H176.737V7.41797C176.737 5.40654 177.491 3.68845 179 2.26369C180.508 0.755118 182.268 0.000834683 184.28 0.000834683H226.268ZM274.092 7.29226C274.092 5.28083 274.762 3.56274 276.103 2.13797C277.528 0.713214 279.288 0.000834683 281.383 0.000834683H321.36C326.724 0.000834683 331.669 1.38369 336.195 4.14941C340.72 6.91512 344.324 10.6446 347.006 15.338C349.772 19.9475 351.155 24.8504 351.155 30.0465C351.155 35.1589 349.898 40.0199 347.383 44.6294C344.953 49.1551 341.558 52.8427 337.2 55.6923C332.926 58.458 328.191 59.8408 322.995 59.8408H309.166L311.68 54.6865L349.898 100.572H332.046L296.092 58.0808C294.751 56.4046 294.08 54.5608 294.08 52.5494C294.08 50.538 294.751 48.8618 296.092 47.5208C297.433 46.1799 299.235 45.5094 301.498 45.5094H321.863C324.629 45.5094 327.101 44.797 329.28 43.3723C331.543 41.8637 333.345 39.9361 334.686 37.5894C336.027 35.2427 336.698 32.7704 336.698 30.1723C336.698 27.4065 335.985 24.8504 334.56 22.5037C333.136 20.0732 331.208 18.1456 328.778 16.7208C326.431 15.2961 323.917 14.5837 321.235 14.5837H288.423V100.572H274.092V7.29226Z" fill="url(#paint0_linear_3819_14427)"/>
<defs>
<linearGradient id="paint0_linear_3819_14427" x1="-6.65039" y1="50.0723" x2="357.35" y2="50.0723" gradientUnits="userSpaceOnUse">
<stop stop-color="#E69D2E"/>
<stop offset="1" stop-color="#A46E1D"/>
</linearGradient>
</defs>
</svg>
